<svg width="27" height="26" viewBox="0 0 27 26" fill="none" xmlns="http://www.w3.org/2000/svg">
<path d="M16.7433 16.1892H22.1308C22.7259 16.1892 23.2083 15.7068 23.2083 15.1117V4.33671C23.2083 3.74163 22.7259 3.25921 22.1308 3.25921L11.3558 3.25921C10.7607 3.25921 10.2783 3.74163 10.2783 4.33671L10.2783 9.72421" stroke="white" stroke-width="2.155" stroke-linecap="round" stroke-linejoin="round"/>
<path d="M4.89098 22.6542L15.666 22.6542C16.2611 22.6542 16.7435 22.1718 16.7435 21.5767L16.7435 10.8017C16.7435 10.2067 16.2611 9.72424 15.666 9.72424L4.89098 9.72424C4.29589 9.72424 3.81348 10.2067 3.81348 10.8017L3.81348 21.5767C3.81348 22.1718 4.29589 22.6542 4.89098 22.6542Z" stroke="white" stroke-width="2.155" stroke-linecap="round" stroke-linejoin="round"/>
</svg>
