<svg width="30" height="30" viewBox="0 0 30 30" fill="none" xmlns="http://www.w3.org/2000/svg">
<path fill-rule="evenodd" clip-rule="evenodd" d="M15 3C8.37258 3 3 8.37258 3 15C3 21.6274 8.37258 27 15 27C21.6274 27 27 21.6274 27 15C27 8.37258 21.6274 3 15 3ZM0 15C0 6.71573 6.71573 0 15 0C23.2843 0 30 6.71573 30 15C30 23.2843 23.2843 30 15 30C6.71573 30 0 23.2843 0 15Z" fill="white"/>
<path fill-rule="evenodd" clip-rule="evenodd" d="M10.5195 14.8247C10.5195 13.9962 11.191 13.3247 12.0195 13.3247H18.0195C18.8479 13.3247 19.5195 13.9962 19.5195 14.8247C19.5195 15.6531 18.8479 16.3247 18.0195 16.3247H12.0195C11.191 16.3247 10.5195 15.6531 10.5195 14.8247Z" fill="white"/>
</svg>
