<svg width="30" height="30" viewBox="0 0 30 30" fill="none" xmlns="http://www.w3.org/2000/svg">
<path fill-rule="evenodd" clip-rule="evenodd" d="M0 15C0 6.71573 6.71573 0 15 0C23.2843 0 30 6.71573 30 15C30 23.2843 23.2843 30 15 30C6.71573 30 0 23.2843 0 15ZM15 2.90323C8.31914 2.90323 2.90323 8.31914 2.90323 15C2.90323 21.6809 8.31914 27.0968 15 27.0968C21.6809 27.0968 27.0968 21.6809 27.0968 15C27.0968 8.31914 21.6809 2.90323 15 2.90323Z" fill="white"/>
<path fill-rule="evenodd" clip-rule="evenodd" d="M8.70968 15C8.70968 11.526 11.526 8.70968 15 8.70968C18.474 8.70968 21.2903 11.526 21.2903 15C21.2903 18.474 18.474 21.2903 15 21.2903C11.526 21.2903 8.70968 18.474 8.70968 15ZM15 11.6129C13.1294 11.6129 11.6129 13.1294 11.6129 15C11.6129 16.8706 13.1294 18.3871 15 18.3871C16.8706 18.3871 18.3871 16.8706 18.3871 15C18.3871 13.1294 16.8706 11.6129 15 11.6129Z" fill="white"/>
</svg>
