<svg width="47" height="47" viewBox="0 0 47 47" fill="none" xmlns="http://www.w3.org/2000/svg">
<path fill-rule="evenodd" clip-rule="evenodd" d="M23.5 4.7C13.117 4.7 4.7 13.117 4.7 23.5C4.7 33.883 13.117 42.3 23.5 42.3C33.883 42.3 42.3 33.883 42.3 23.5C42.3 13.117 33.883 4.7 23.5 4.7ZM0 23.5C0 10.5213 10.5213 0 23.5 0C36.4787 0 47 10.5213 47 23.5C47 36.4787 36.4787 47 23.5 47C10.5213 47 0 36.4787 0 23.5ZM21.0328 14.1C21.0328 12.8022 22.0849 11.75 23.3828 11.75H23.6178C24.9156 11.75 25.9678 12.8022 25.9678 14.1V14.335C25.9678 15.6329 24.9156 16.685 23.6178 16.685H23.3828C22.0849 16.685 21.0328 15.6329 21.0328 14.335V14.1ZM23.5 18.8C24.7979 18.8 25.85 19.8522 25.85 21.15V32.9C25.85 34.1979 24.7979 35.25 23.5 35.25C22.2021 35.25 21.15 34.1979 21.15 32.9V21.15C21.15 19.8522 22.2021 18.8 23.5 18.8Z" fill="white"/>
</svg>
