<svg width="35" height="35" viewBox="0 0 35 35" fill="none" xmlns="http://www.w3.org/2000/svg">
<path d="M14.5834 23.3333H7.29175V30.625" stroke="white" stroke-width="2.91667" stroke-linecap="round" stroke-linejoin="round"/>
<path d="M28.3173 21.8704C27.4997 23.8942 26.1307 25.648 24.3659 26.9325C22.6012 28.217 20.5115 28.9807 18.3343 29.1368C16.1572 29.2928 13.9799 28.835 12.05 27.8153C10.1201 26.7956 8.51495 25.255 7.41699 23.3685" stroke="white" stroke-width="2.91667" stroke-linecap="round" stroke-linejoin="round"/>
<path d="M20.4167 11.6667H27.7084V4.375" stroke="white" stroke-width="2.91667" stroke-linecap="round" stroke-linejoin="round"/>
<path d="M6.68286 13.1296C7.50053 11.1058 8.86953 9.35196 10.6343 8.06744C12.399 6.78292 14.4887 6.01923 16.6659 5.86318C18.843 5.70712 21.0203 6.16494 22.9502 7.18463C24.8801 8.20431 26.4853 9.74494 27.5832 11.6314" stroke="white" stroke-width="2.91667" stroke-linecap="round" stroke-linejoin="round"/>
</svg>
