<svg width="30" height="30" viewBox="0 0 30 30" fill="none" xmlns="http://www.w3.org/2000/svg">
<path fill-rule="evenodd" clip-rule="evenodd" d="M15 3C8.37258 3 3 8.37258 3 15C3 21.6274 8.37258 27 15 27C21.6274 27 27 21.6274 27 15C27 8.37258 21.6274 3 15 3ZM0 15C0 6.71573 6.71573 0 15 0C23.2843 0 30 6.71573 30 15C30 23.2843 23.2843 30 15 30C6.71573 30 0 23.2843 0 15Z" fill="white"/>
<path fill-rule="evenodd" clip-rule="evenodd" d="M20.5607 10.9393C21.1464 11.5251 21.1464 12.4749 20.5607 13.0607L14.5607 19.0607C13.9749 19.6464 13.0251 19.6464 12.4393 19.0607L9.43934 16.0607C8.85355 15.4749 8.85355 14.5251 9.43934 13.9393C10.0251 13.3536 10.9749 13.3536 11.5607 13.9393L13.5 15.8787L18.4393 10.9393C19.0251 10.3536 19.9749 10.3536 20.5607 10.9393Z" fill="white"/>
</svg>
