<svg width="68" height="68" viewBox="0 0 68 68" fill="none" xmlns="http://www.w3.org/2000/svg">
<path d="M12.0403 22.8654V20.0817C10.5029 20.0817 9.25662 21.328 9.25662 22.8654H12.0403ZM56.5788 22.8654H59.3625C59.3625 21.328 58.1162 20.0817 56.5788 20.0817V22.8654ZM12.0403 25.649H56.5788V20.0817H12.0403V25.649ZM14.8239 53.4856V22.8654H9.25662V53.4856H14.8239ZM53.7952 53.4856H14.8239V59.053H53.7952V53.4856ZM53.7952 22.8654V53.4856H59.3625V22.8654H53.7952ZM53.7952 59.053C56.8699 59.053 59.3625 56.5604 59.3625 53.4856H53.7952L53.7952 53.4856V59.053ZM9.25662 53.4856C9.25662 56.5604 11.7492 59.053 14.8239 59.053V53.4856V53.4856H9.25662Z" fill="white"/>
<path d="M34.3093 31.2163L34.3093 47.9183" stroke="white" stroke-width="5.56732" stroke-linecap="round" stroke-linejoin="round"/>
<path d="M42.6604 42.351L34.3095 47.9183L25.9585 42.351" stroke="white" stroke-width="5.56732" stroke-linecap="round" stroke-linejoin="round"/>
<path d="M12.0403 22.8653L9.62339 21.4843C9.13108 22.3458 9.13461 23.4043 9.63267 24.2625C10.1307 25.1208 11.048 25.649 12.0403 25.649V22.8653ZM17.6015 13.1333L15.1846 11.7522L15.1846 11.7522L17.6015 13.1333ZM56.5788 22.8653V25.649C57.5711 25.649 58.4884 25.1208 58.9864 24.2625C59.4845 23.4043 59.488 22.3458 58.9957 21.4843L56.5788 22.8653ZM51.0177 13.1333L48.6008 14.5144L48.6008 14.5144L51.0177 13.1333ZM20.0184 14.5144H48.6008V8.94705H20.0184V14.5144ZM14.4572 24.2464L20.0184 14.5144L15.1846 11.7522L9.62339 21.4843L14.4572 24.2464ZM56.5788 20.0817H12.0403V25.649H56.5788V20.0817ZM48.6008 14.5144L54.1619 24.2464L58.9957 21.4843L53.4345 11.7522L48.6008 14.5144ZM48.6008 14.5144L48.6008 14.5144L53.4345 11.7522C52.4433 10.0176 50.5986 8.94705 48.6008 8.94705V14.5144ZM20.0184 8.94705C18.0205 8.94705 16.1758 10.0176 15.1846 11.7522L20.0184 14.5144L20.0184 14.5144V8.94705Z" fill="white"/>
</svg>
