<svg width="32" height="32" viewBox="0 0 32 32" fill="none" xmlns="http://www.w3.org/2000/svg">
<path d="M26.3946 26.3946V25.0748V26.3946ZM5.27893 26.3946L5.27893 27.7143L5.27893 26.3946ZM3.9592 25.0748H5.27893V25.0748L3.9592 25.0748ZM3.9592 7.91837L3.9592 6.59864C3.60918 6.59864 3.27351 6.73768 3.02601 6.98518C2.77851 7.23267 2.63947 7.56835 2.63947 7.91837L3.9592 7.91837ZM27.7143 9.23809L29.034 9.23809V9.23809L27.7143 9.23809ZM27.7143 25.0748H26.3946H27.7143ZM26.3946 7.91837V6.59864V7.91837ZM26.3946 25.0748H5.27893L5.27893 27.7143H26.3946V25.0748ZM5.27893 25.0748L5.27893 7.91837L2.63947 7.91837L2.63947 25.0748L5.27893 25.0748ZM26.3946 9.23809L26.3946 25.0748H29.034L29.034 9.23809L26.3946 9.23809ZM3.9592 9.23809L26.3946 9.23809V6.59864L3.9592 6.59864L3.9592 9.23809ZM29.034 9.23809C29.034 7.78036 27.8523 6.59864 26.3946 6.59864V9.23809L29.034 9.23809ZM5.27893 25.0748L2.63947 25.0748C2.63947 26.5326 3.8212 27.7143 5.27893 27.7143L5.27893 25.0748ZM26.3946 27.7143C27.8523 27.7143 29.034 26.5326 29.034 25.0748H26.3946V27.7143Z" fill="white"/>
<path d="M12.2641 18.8627C11.7488 19.3781 11.7488 20.2137 12.2641 20.7291C12.7795 21.2444 13.6151 21.2444 14.1305 20.7291L12.2641 18.8627ZM19.4094 15.4502C19.9248 14.9348 19.9248 14.0992 19.4094 13.5838C18.894 13.0684 18.0584 13.0684 17.543 13.5838L19.4094 15.4502ZM14.1305 20.7291L19.4094 15.4502L17.543 13.5838L12.2641 18.8627L14.1305 20.7291Z" fill="white"/>
<path d="M14.1305 13.5839C13.6151 13.0685 12.7795 13.0685 12.2641 13.5839C11.7488 14.0993 11.7488 14.9349 12.2641 15.4502L14.1305 13.5839ZM17.543 20.7291C18.0584 21.2445 18.894 21.2445 19.4094 20.7291C19.9248 20.2137 19.9248 19.3781 19.4094 18.8627L17.543 20.7291ZM12.2641 15.4502L17.543 20.7291L19.4094 18.8627L14.1305 13.5839L12.2641 15.4502Z" fill="white"/>
<path d="M15.8367 7.91836L13.5838 5.66544C13.3363 5.41794 13.0007 5.2789 12.6506 5.2789H5.27893C4.55006 5.2789 3.9592 5.86976 3.9592 6.59863V7.91836" stroke="white" stroke-width="2.63946" stroke-linecap="round" stroke-linejoin="round"/>
</svg>
