<svg width="32" height="32" viewBox="0 0 32 32" fill="none" xmlns="http://www.w3.org/2000/svg">
<path d="M12.6701 17.137C12.1547 17.6524 12.1547 18.488 12.6701 19.0034C13.1854 19.5187 14.021 19.5187 14.5364 19.0034L12.6701 17.137ZM20.932 12.6077C21.4474 12.0924 21.4474 11.2568 20.932 10.7414C20.4166 10.226 19.581 10.226 19.0657 10.7414L20.932 12.6077ZM14.5364 19.0034L20.932 12.6077L19.0657 10.7414L12.6701 17.137L14.5364 19.0034Z" fill="white"/>
<path d="M18.1201 27.4075L16.9397 27.9977L18.1201 27.4075ZM20.5618 27.2054L19.3005 26.8173L20.5618 27.2054ZM13.1086 17.9748L12.5184 19.1552L13.1086 17.9748ZM13.6988 18.565L14.8792 17.9748L13.6988 18.565ZM4.46824 11.1118L4.85636 12.3732L4.46824 11.1118ZM4.26616 13.5536L3.67596 14.734H3.67596L4.26616 13.5536ZM25.332 4.6922L25.7201 5.95356L25.332 4.6922ZM26.9815 6.34168L28.2428 6.72979L26.9815 6.34168ZM24.9439 3.43083L4.08013 9.85044L4.85636 12.3732L25.7201 5.95356L24.9439 3.43083ZM3.67596 14.734L12.5184 19.1552L13.6988 16.7944L4.85636 12.3732L3.67596 14.734ZM12.5184 19.1552L16.9397 27.9977L19.3005 26.8173L14.8792 17.9748L12.5184 19.1552ZM21.8232 27.5935L28.2428 6.72979L25.7201 5.95356L19.3005 26.8173L21.8232 27.5935ZM16.9397 27.9977C18.0046 30.1275 21.1229 29.8694 21.8232 27.5935L19.3005 26.8173L16.9397 27.9977ZM12.5184 19.1552H12.5184L14.8792 17.9748C14.6238 17.464 14.2096 17.0498 13.6988 16.7944L12.5184 19.1552ZM4.08013 9.85044C1.80421 10.5507 1.54614 13.6691 3.67596 14.734L4.85636 12.3732L4.85636 12.3732L4.08013 9.85044ZM25.7201 5.95356L25.7201 5.95356L28.2428 6.72979C28.866 4.70459 26.969 2.80769 24.9439 3.43083L25.7201 5.95356Z" fill="white"/>
</svg>
