<svg width="32" height="32" viewBox="0 0 32 32" fill="none" xmlns="http://www.w3.org/2000/svg">
<path d="M15.8367 21.1156C18.7522 21.1156 21.1157 18.7522 21.1157 15.8367C21.1157 12.9212 18.7522 10.5578 15.8367 10.5578C12.9213 10.5578 10.5578 12.9212 10.5578 15.8367C10.5578 18.7522 12.9213 21.1156 15.8367 21.1156Z" stroke="white" stroke-width="2.63946" stroke-linecap="round" stroke-linejoin="round"/>
<path d="M25.2086 10.3285L26.3513 9.66835L26.3513 9.66835L25.2086 10.3285ZM25.2954 10.4787L24.1526 11.1388L24.1526 11.1388L25.2954 10.4787ZM26.2977 11.4651L26.9393 10.3118L26.9393 10.3118L26.2977 11.4651ZM28.3448 12.6039L27.7032 13.7571V13.7571L28.3448 12.6039ZM29.023 13.7541L27.7032 13.7571V13.7571L29.023 13.7541ZM29.0324 17.9137L27.7127 17.9167V17.9167L29.0324 17.9137ZM28.3524 19.071L27.7127 17.9167L27.7127 17.9167L28.3524 19.071ZM26.3003 20.2082L26.94 21.3625L26.3003 20.2082ZM25.2942 21.1966L24.1514 20.5365L24.1514 20.5365L25.2942 21.1966ZM25.2086 21.3449L26.3513 22.005L26.3513 22.005L25.2086 21.3449ZM24.855 22.7095L23.5355 22.7317V22.7317L24.855 22.7095ZM24.8946 25.0598L23.575 25.082L24.8946 25.0598ZM24.2375 26.2234L23.575 25.082L23.575 25.082L24.2375 26.2234ZM20.6373 28.3129L21.2998 29.4544L21.2998 29.4543L20.6373 28.3129ZM19.2955 28.303L19.9748 27.1715L19.9748 27.1715L19.2955 28.303ZM17.2815 27.0939L16.6023 28.2254L17.2815 27.0939ZM14.3932 27.0923L15.0712 28.2246H15.0712L14.3932 27.0923ZM12.3885 28.2927L11.7105 27.1605L12.3885 28.2927ZM11.0516 28.3039L11.7105 27.1605L11.0516 28.3039ZM7.43995 26.2227L8.09887 25.0793L7.43995 26.2227ZM6.77933 25.057L8.09887 25.0793L6.77933 25.057ZM6.81883 22.717L5.49929 22.6947L6.81883 22.717ZM6.47049 21.3612L7.61586 20.7056L6.47049 21.3612ZM6.37874 21.2009L5.23337 21.8565L5.23337 21.8565L6.37874 21.2009ZM5.37116 20.2055L4.72958 21.3588H4.72958L5.37116 20.2055ZM3.32899 19.0695L2.68741 20.2227H2.68741L3.32899 19.0695ZM2.65084 17.9192L1.33111 17.9222L2.65084 17.9192ZM2.64139 13.7596L3.96112 13.7566L2.64139 13.7596ZM3.32142 12.6023L3.96112 13.7566H3.96112L3.32142 12.6023ZM5.37345 11.4651L4.73376 10.3108L4.73376 10.3108L5.37345 11.4651ZM6.37961 10.4767L5.23684 9.81659L5.23684 9.81659L6.37961 10.4767ZM6.46524 10.3285L7.60801 10.9886L7.60801 10.9886L6.46524 10.3285ZM6.81878 8.96383L8.13832 8.94163L6.81878 8.96383ZM6.77924 6.61351L5.4597 6.63571L6.77924 6.61351ZM7.43632 5.4499L8.09878 6.59131L7.43632 5.4499ZM11.0365 3.36038L11.699 4.5018V4.5018L11.0365 3.36038ZM12.3783 3.37031L11.699 4.5018V4.5018L12.3783 3.37031ZM14.3923 4.57941L13.713 5.71089L14.3923 4.57941ZM17.2806 4.58098L16.6026 3.44871V3.44871L17.2806 4.58098ZM19.2853 3.38058L18.6074 2.24831V2.24831L19.2853 3.38058ZM20.6222 3.36939L21.2812 2.22592V2.22592L20.6222 3.36939ZM24.2339 5.4506L24.8928 4.30714V4.30714L24.2339 5.4506ZM24.8945 6.61627L23.575 6.59406V6.59406L24.8945 6.61627ZM24.855 8.96383L23.5355 8.94163V8.94163L24.855 8.96383ZM24.0658 10.9886L24.1526 11.1388L26.4381 9.81861L26.3513 9.66835L24.0658 10.9886ZM25.6562 12.6183L27.7032 13.7571L28.9864 11.4506L26.9393 10.3118L25.6562 12.6183ZM27.7032 13.7571L27.7127 17.9167L30.3521 17.9107L30.3427 13.7511L27.7032 13.7571ZM27.7127 17.9167L25.6607 19.0539L26.94 21.3625L28.9921 20.2253L27.7127 17.9167ZM24.1514 20.5365L24.0658 20.6847L26.3513 22.005L26.437 21.8567L24.1514 20.5365ZM23.5355 22.7317L23.575 25.082L26.2141 25.0376L26.1746 22.6873L23.5355 22.7317ZM23.575 25.082L19.9748 27.1715L21.2998 29.4543L24.8999 27.3648L23.575 25.082ZM19.9748 27.1715L17.9608 25.9624L16.6023 28.2254L18.6163 29.4345L19.9748 27.1715ZM15.923 25.3977H15.7492V28.0371H15.923V25.3977ZM13.7153 25.9601L11.7105 27.1605L13.0664 29.425L15.0712 28.2246L13.7153 25.9601ZM11.7105 27.1605L8.09887 25.0793L6.78103 27.3662L10.3926 29.4474L11.7105 27.1605ZM8.09887 25.0793L8.13837 22.7392L5.49929 22.6947L5.45979 25.0347L8.09887 25.0793ZM7.61586 20.7056L7.5241 20.5453L5.23337 21.8565L5.32512 22.0168L7.61586 20.7056ZM6.01274 19.0523L3.97056 17.9162L2.68741 20.2227L4.72958 21.3588L6.01274 19.0523ZM3.97056 17.9162L3.96112 13.7566L1.32167 13.7626L1.33111 17.9222L3.97056 17.9162ZM3.96112 13.7566L6.01314 12.6195L4.73376 10.3108L2.68173 11.448L3.96112 13.7566ZM7.52238 11.1368L7.60801 10.9886L5.32247 9.66835L5.23684 9.81659L7.52238 11.1368ZM8.13832 8.94163L8.09878 6.59131L5.4597 6.63571L5.49924 8.98603L8.13832 8.94163ZM8.09878 6.59131L11.699 4.5018L10.374 2.21897L6.77385 4.30848L8.09878 6.59131ZM11.699 4.5018L13.713 5.71089L15.0715 3.44792L13.0575 2.23883L11.699 4.5018ZM15.7508 6.27563H15.9246V3.63617H15.7508V6.27563ZM17.9585 5.71325L19.9633 4.51285L18.6074 2.24831L16.6026 3.44871L17.9585 5.71325ZM19.9633 4.51285L23.575 6.59406L24.8928 4.30714L21.2812 2.22592L19.9633 4.51285ZM23.575 6.59406L23.5355 8.94163L26.1746 8.98603L26.2141 6.63847L23.575 6.59406ZM23.575 6.59406L23.575 6.59406L26.2141 6.63847C26.2302 5.67896 25.7243 4.78628 24.8928 4.30714L23.575 6.59406ZM19.9633 4.51285L19.9633 4.51285L21.2812 2.22592C20.4518 1.74799 19.4286 1.75656 18.6074 2.24831L19.9633 4.51285ZM15.9246 6.27563C16.641 6.27563 17.3439 6.08126 17.9585 5.71325L16.6026 3.44871C16.3977 3.57138 16.1634 3.63617 15.9246 3.63617V6.27563ZM13.713 5.71089C14.3285 6.08042 15.0329 6.27563 15.7508 6.27563V3.63617C15.5115 3.63617 15.2767 3.5711 15.0715 3.44792L13.713 5.71089ZM11.699 4.5018L11.699 4.5018L13.0575 2.23883C12.2334 1.74405 11.2054 1.73645 10.374 2.21897L11.699 4.5018ZM8.09878 6.59131V6.59131L6.77385 4.30848C5.9464 4.78873 5.4436 5.67913 5.4597 6.63571L8.09878 6.59131ZM7.60801 10.9886C7.96709 10.367 8.1504 9.65941 8.13832 8.94163L5.49924 8.98603C5.50327 9.22529 5.44216 9.46114 5.32247 9.66835L7.60801 10.9886ZM6.01314 12.6195C6.6414 12.2713 7.1631 11.7588 7.52238 11.1368L5.23684 9.81659C5.11708 10.0239 4.94318 10.1948 4.73376 10.3108L6.01314 12.6195ZM3.96112 13.7566L3.96112 13.7566L2.68173 11.448C1.84055 11.9141 1.31948 12.8009 1.32167 13.7626L3.96112 13.7566ZM3.97057 17.9162H3.97056L1.33111 17.9222C1.33329 18.8781 1.85209 19.7581 2.68741 20.2227L3.97057 17.9162ZM7.5241 20.5453C7.16574 19.9192 6.64314 19.403 6.01274 19.0523L4.72958 21.3588C4.93971 21.4757 5.11392 21.6478 5.23337 21.8565L7.5241 20.5453ZM8.13837 22.7392C8.1504 22.0267 7.96988 21.3241 7.61586 20.7056L5.32512 22.0168C5.44313 22.223 5.5033 22.4572 5.49929 22.6947L8.13837 22.7392ZM8.09887 25.0793V25.0793L5.45979 25.0347C5.44359 25.9943 5.94951 26.887 6.78103 27.3662L8.09887 25.0793ZM11.7105 27.1605H11.7105L10.3926 29.4474C11.222 29.9253 12.2452 29.9168 13.0664 29.425L11.7105 27.1605ZM15.7492 25.3977C15.0328 25.3977 14.3299 25.5921 13.7153 25.9601L15.0712 28.2246C15.2761 28.1019 15.5104 28.0371 15.7492 28.0371V25.3977ZM17.9608 25.9624C17.3453 25.5929 16.6409 25.3977 15.923 25.3977V28.0371C16.1623 28.0371 16.3971 28.1022 16.6023 28.2254L17.9608 25.9624ZM19.9748 27.1715V27.1715L18.6163 29.4345C19.4404 29.9293 20.4684 29.9369 21.2998 29.4544L19.9748 27.1715ZM23.575 25.082L23.575 25.082L24.8999 27.3648C25.7274 26.8846 26.2302 25.9942 26.2141 25.0376L23.575 25.082ZM24.0658 20.6847C23.7067 21.3064 23.5234 22.0139 23.5355 22.7317L26.1746 22.6873C26.1705 22.448 26.2316 22.2122 26.3513 22.005L24.0658 20.6847ZM25.6607 19.0539C25.0324 19.402 24.5107 19.9145 24.1514 20.5365L26.437 21.8567C26.5567 21.6494 26.7306 21.4786 26.94 21.3625L25.6607 19.0539ZM27.7127 17.9167V17.9167L28.9921 20.2253C29.8333 19.7592 30.3543 18.8724 30.3521 17.9107L27.7127 17.9167ZM27.7032 13.7571V13.7571L30.3427 13.7511C30.3405 12.7953 29.8217 11.9153 28.9864 11.4506L27.7032 13.7571ZM24.1526 11.1388C24.5108 11.7589 25.0304 12.2702 25.6562 12.6183L26.9393 10.3118C26.7307 10.1957 26.5575 10.0253 26.4381 9.8186L24.1526 11.1388ZM26.3513 9.66835C26.2316 9.46114 26.1705 9.22529 26.1746 8.98603L23.5355 8.94163C23.5234 9.6594 23.7067 10.367 24.0658 10.9886L26.3513 9.66835Z" fill="white"/>
</svg>
