<svg width="29" height="29" viewBox="0 0 29 29" fill="none" xmlns="http://www.w3.org/2000/svg">
<path fill-rule="evenodd" clip-rule="evenodd" d="M18.9799 1.33559C20.2327 0.0827695 22.2639 0.0827695 23.5167 1.33559L22.3825 2.46981M27.6644 5.48326C28.9172 6.73608 28.9172 8.76731 27.6644 10.0201L22.3905 15.294C22.3879 15.2967 22.3852 15.2994 22.3825 15.3021C22.3799 15.3047 22.3772 15.3074 22.3745 15.31L9.55031 28.1342C9.2495 28.435 8.84151 28.604 8.41609 28.604H1.99999C1.11411 28.604 0.395966 27.8859 0.395966 27V20.5839C0.395966 20.1585 0.564961 19.7505 0.865774 19.4497L18.9799 1.33559M21.2483 11.8994L25.396 7.75169L21.2483 3.60403L17.1006 7.75171L21.2483 11.8994ZM14.8322 10.0201L18.9798 14.1678L7.75168 25.396H3.60402V21.2483L14.8322 10.0201ZM27.6644 5.48326L23.5167 1.33559Z" fill="#2C2D2E"/>
<path d="M23.5167 1.33559L22.3825 2.46981L18.9799 1.33559L27.6644 5.48326L23.5167 1.33559Z" fill="#2C2D2E"/>
</svg>
