<svg width="47" height="47" viewBox="0 0 47 47" fill="none" xmlns="http://www.w3.org/2000/svg">
<mask id="mask0_12_32" style="mask-type:alpha" maskUnits="userSpaceOnUse" x="0" y="0" width="47" height="47">
<rect width="47" height="47" rx="11.4889" fill="#2979F1"/>
</mask>
<g mask="url(#mask0_12_32)">
<rect width="47" height="47" rx="11.4889" fill="#FF4916"/>
<path d="M47.5595 22.381C47.5595 16.8187 44.2891 12.3095 39.5646 12.3095C34.84 12.3095 29.7453 14.5476 23.5 14.5476C17.2547 14.5476 12.16 12.3095 7.43546 12.3095C2.71095 12.3095 -0.559509 16.8187 -0.559509 22.3809V25.293C8.17498 26.5923 14.4361 29.4319 18.5608 32.279C21.5283 34.3273 26.5426 34.3259 29.5103 32.2778C33.4647 29.5487 39.3821 26.8266 47.5595 25.4618V22.381Z" fill="url(#paint0_linear_12_32)"/>
<rect x="9.5119" y="7.2738" width="27.4167" height="29.6548" rx="2.79762" fill="#F4DDA1"/>
<path fill-rule="evenodd" clip-rule="evenodd" d="M0 23.7217V47H47V23.9086C39.2069 25.3466 33.513 28.0752 29.6513 30.8261C26.6441 32.9683 21.4236 32.9669 18.4164 30.825C14.3802 27.9501 8.34292 25.0999 0 23.7217Z" fill="url(#paint1_linear_12_32)"/>
</g>
<defs>
<linearGradient id="paint0_linear_12_32" x1="36.6488" y1="9.23215" x2="21.6932" y2="38.0031" gradientUnits="userSpaceOnUse">
<stop stop-color="#FEAB6A"/>
<stop offset="1" stop-color="#FC4714"/>
</linearGradient>
<linearGradient id="paint1_linear_12_32" x1="23.5" y1="32.3694" x2="23.5" y2="47" gradientUnits="userSpaceOnUse">
<stop stop-color="#FFC737"/>
<stop offset="1" stop-color="#FFCA38"/>
<stop offset="1" stop-color="#FFCA38"/>
</linearGradient>
</defs>
</svg>
